<?xml version="1.0" encoding="utf-8"?>
<!-- Generator: Adobe Illustrator 19.0.0, SVG Export Plug-In . SVG Version: 6.00 Build 0)  -->
<svg version="1.1" id="Layer_1" xmlns="http://www.w3.org/2000/svg" xmlns:xlink="http://www.w3.org/1999/xlink" x="0px" y="0px"
	 viewBox="0 0 200 200" style="enable-background:new 0 0 200 200;" xml:space="preserve">
<g id="XMLID_229_">
	<g id="XMLID_248_">
		<g id="XMLID_249_">
			<path id="XMLID_250_" d="M170.5,60.3C170.5,60.3,170.5,60.3,170.5,60.3L123.9,14c-1.2-1.2-3.2-1.2-4.4,0l-10.2,10.3V13.1
				c0-1.7-1.4-3.1-3.1-3.1H31.7c-1.7,0-3.1,1.4-3.1,3.1v130.3c0,1.7,1.4,3.1,3.1,3.1h3.1v4.6c0,13.7,4.6,27,13.1,37.7
				c1.1,1.3,3,1.6,4.4,0.5c1.3-1.1,1.6-3,0.5-4.4c-7.6-9.6-11.8-21.6-11.7-33.8v-4.6h12.4v21.2c0,1.7,1.4,3.1,3.1,3.1
				c1.7,0,3.1-1.4,3.1-3.1v-36.7c0-3.4,2.8-6.2,6.2-6.2s6.2,2.8,6.2,6.2v27.3c0,0.8,0.3,1.6,0.9,2.2l1.4,1.4
				c6.5,6.6,10.1,15.6,10.1,24.8c0,1.7,1.4,3.1,3.1,3.1c1.7,0,3.1-1.4,3.1-3.1c0-6.8-1.6-13.5-4.8-19.5c4.4-6.1,7.1-13.3,7.7-20.8
				h12.6c1.7,0,3.1-1.4,3.1-3.1v-17.3l61.2-61.4C171.7,63.5,171.7,61.6,170.5,60.3z M82.2,161.7c-1.1-1.4-2.2-2.8-3.4-4l-0.5-0.5
				v-10.6h9.1C86.8,151.9,85.1,157.1,82.2,161.7z M103.1,140.3H78.3v-9.3c0.1-6.8-5.4-12.4-12.2-12.5c-5.7-0.1-10.7,3.8-12.1,9.4
				h-6.7v-12.4c0-1.7-1.4-3.1-3.1-3.1c-1.7,0-3.1,1.4-3.1,3.1V131c0,1.7,1.4,3.1,3.1,3.1h9.3v6.2H34.8V16.2h68.3V140.3z
				 M109.3,117.3v-9.8L151.8,65c1.2-1.2,1.2-3.2,0-4.4l-6.2-6.2c-1.2-1.2-3.2-1.2-4.4,0.1c-1.2,1.2-1.2,3.1,0,4.3l4,4l-36,36V51.6
				l12.4-12.4l4,4c1.2,1.2,3.2,1.2,4.4-0.1c1.2-1.2,1.2-3.1,0-4.3l-6.2-6.2c-1.2-1.2-3.2-1.2-4.4,0l-10.2,10.2v-9.8l12.4-12.5
				l42.2,42L109.3,117.3z"/>
		</g>
	</g>
	<g id="XMLID_240_">
		<g id="XMLID_241_">
			<path id="XMLID_242_" d="M69,47.2C53.5,47.2,41,59.7,41,75.2c0,15.4,12.5,27.9,27.9,27.9c15.4,0,27.9-12.5,27.9-27.9
				C96.9,59.7,84.4,47.2,69,47.2z M69,53.4c4.5,0,9,1.4,12.6,4.1c-5.1,1.7-9.3,5.6-11.3,10.6c-3.1-6.2-10-9.6-16.8-8.2
				C57.6,55.8,63.1,53.4,69,53.4z M47.2,75.2c0-5.1,4.2-9.3,9.3-9.3c5.1,0,9.3,4.2,9.3,9.3c0,5.1-4.2,9.3-9.3,9.3
				S47.2,80.3,47.2,75.2z M69,96.9c-5.8,0-11.4-2.3-15.5-6.5c6.8,1.4,13.7-2,16.8-8.2c2,5,6.2,8.9,11.3,10.6
				C77.9,95.5,73.5,96.9,69,96.9z M86.8,87.5c-6.8-0.4-12-6.2-11.7-13c0.3-6.3,5.4-11.3,11.7-11.7c2.5,3.6,3.9,7.9,3.9,12.3
				C90.7,79.6,89.3,83.9,86.8,87.5z"/>
		</g>
	</g>
	<g id="XMLID_237_">
		<g id="XMLID_238_">
			<path id="XMLID_239_" d="M50.3,22.4h-6.2c-1.7,0-3.1,1.4-3.1,3.1V41c0,1.7,1.4,3.1,3.1,3.1c1.7,0,3.1-1.4,3.1-3.1V28.6h3.1
				c1.7,0,3.1-1.4,3.1-3.1C53.4,23.8,52.1,22.4,50.3,22.4z"/>
		</g>
	</g>
	<g id="XMLID_234_">
		<g id="XMLID_235_">
			<path id="XMLID_236_" d="M93.8,112.4c-1.7,0-3.1,1.4-3.1,3.1v12.4h-3.1c-1.7,0-3.1,1.4-3.1,3.1s1.4,3.1,3.1,3.1h6.2
				c1.7,0,3.1-1.4,3.1-3.1v-15.5C96.9,113.8,95.5,112.4,93.8,112.4z"/>
		</g>
	</g>
	<g id="XMLID_230_">
		<g id="XMLID_231_">
			<path id="XMLID_233_" d="M93.8,22.4h-6.2c-1.7,0-3.1,1.4-3.1,3.1c0,1.7,1.4,3.1,3.1,3.1h3.1V41c0,1.7,1.4,3.1,3.1,3.1
				c1.7,0,3.1-1.4,3.1-3.1V25.5C96.9,23.8,95.5,22.4,93.8,22.4z"/>
		</g>
	</g>
</g>
</svg>
