<?xml version="1.0" encoding="utf-8"?>
<!-- Generator: Adobe Illustrator 19.0.0, SVG Export Plug-In . SVG Version: 6.00 Build 0)  -->
<svg version="1.1" id="Layer_1" xmlns="http://www.w3.org/2000/svg" xmlns:xlink="http://www.w3.org/1999/xlink" x="0px" y="0px"
	 viewBox="0 0 200 200" style="enable-background:new 0 0 200 200;" xml:space="preserve">
<g id="XMLID_173_">
	<g id="XMLID_202_">
		<g id="XMLID_203_">
			<path id="XMLID_204_" d="M161.8,54.6c-6.5,0-12.9,2.4-17.9,6.6c-5-4.2-11.4-6.6-17.9-6.6c-15.5,0-28.2,12.9-28.2,28.8
				c0,3.7,1.2,7.9,3.5,12.8h-21l8.3-17.9c3.8-8.1,2.4-17.8-3.4-24.6l-3.5-4c-0.7-0.8-1.7-1.2-2.7-1.2c-1,0-2,0.5-2.7,1.3L63.1,65.8
				c-1.2,1.5-1,3.7,0.5,4.9c1.5,1.2,3.7,1,4.9-0.5l10.7-13l0.7,0.9c4,4.7,5,11.4,2.4,17.1L71.7,98.2c-0.5,1.1-0.4,2.4,0.2,3.4
				c0.6,1,1.8,1.6,3,1.6h61.7c3.4,0,6.2,2.8,6.2,6.2v0.2c0,3.4-2.8,6.2-6.2,6.2h-19H91.4c-1.9,0-3.5,1.6-3.5,3.5
				c0,1.9,1.6,3.5,3.5,3.5h26.2c1.7,0,3.2,0.7,4.3,1.7c0.2,0.2,0.4,0.5,0.6,0.7c0.8,1,1.3,2.3,1.3,3.8v0.2c0,3.4-2.8,6.2-6.2,6.2
				H91.4c-1.9,0-3.5,1.6-3.5,3.5c0,1.9,1.6,3.5,3.5,3.5h26.2c3.4,0,6.2,2.8,6.2,6.2v0.2c0,3.4-2.8,6.2-6.2,6.2h-11.9H91.4
				c-1.9,0-3.5,1.6-3.5,3.5s1.6,3.5,3.5,3.5h14.2c3.4,0,6.2,2.8,6.2,6.2v0.2c0,3.4-2.8,6.2-6.2,6.2H54.7c-4.7,0-9.4-0.9-13.8-2.6
				l-4.9-1.9v-60.9l14.3-17.3c1.2-1.5,1-3.7-0.5-4.9c-1.5-1.2-3.7-1-4.9,0.5l-9.6,11.5c-0.6-0.9-1.7-1.4-2.8-1.4h-19
				c-1.9,0-3.5,1.6-3.5,3.5v77c0,1.9,1.6,3.5,3.5,3.5h19c1.9,0,3.5-1.6,3.5-3.5v-0.5l2.3,0.9c5.2,2.1,10.7,3.1,16.4,3.1h50.9
				c7.3,0,13.3-6,13.3-13.3v-0.2c0-2.3-0.6-4.4-1.6-6.2h0.2c7.3,0,13.3-6,13.3-13.3v-0.2c0-3.9-1.7-7.3-4.3-9.7
				c1.6-1.5,2.8-3.4,3.6-5.5c6.4,6.6,11.2,11.1,11.5,11.4c0.7,0.6,1.5,0.9,2.4,0.9c0.9,0,1.7-0.3,2.4-0.9c0.3-0.2,6.7-6.2,14.6-14.7
				c1.3-1.4,1.2-3.6-0.2-5c-1.4-1.3-3.6-1.2-5,0.2c-4.9,5.3-9.3,9.6-11.8,12.1c-3-2.9-8.4-8.2-14.2-14.7h6.8c7.3,0,13.3-6,13.3-13.3
				v-0.2c0-7.3-6-13.3-13.3-13.3h-27.2c-3.6-6.5-4.4-10.5-4.4-12.8c0-12,9.5-21.8,21.1-21.8c5.8,0,11.3,2.4,15.3,6.8
				c0.7,0.7,1.6,1.1,2.6,1.1c1,0,1.9-0.4,2.6-1.1c4-4.4,9.5-6.8,15.3-6.8c11.6,0,21.1,9.8,21.1,21.8c0,3.4-1.7,9.9-10.1,21.5
				c-1.1,1.6-0.8,3.8,0.8,4.9c0.6,0.4,1.3,0.7,2,0.7c1.1,0,2.2-0.5,2.9-1.5c7.6-10.7,11.4-19.1,11.4-25.6
				C190,67.5,177.4,54.6,161.8,54.6z M29,174.9H17v-70h12V174.9z"/>
		</g>
	</g>
	<g id="XMLID_174_">
		<g id="XMLID_199_">
			<g id="XMLID_200_">
				<path id="XMLID_201_" d="M158.4,18.1c-1.9,0-3.5,1.6-3.5,3.5v15.5c0,1.9,1.6,3.5,3.5,3.5s3.5-1.6,3.5-3.5V21.6
					C161.9,19.6,160.3,18.1,158.4,18.1z"/>
			</g>
		</g>
		<g id="XMLID_196_">
			<g id="XMLID_197_">
				<path id="XMLID_198_" d="M137.9,33.1l-4.7-8.1c-1-1.7-3.1-2.3-4.8-1.3c-1.7,1-2.3,3.1-1.3,4.8l4.7,8.1c0.7,1.1,1.8,1.8,3,1.8
					c0.6,0,1.2-0.2,1.8-0.5C138.3,37,138.9,34.8,137.9,33.1z"/>
			</g>
		</g>
		<g id="XMLID_175_">
			<g id="XMLID_176_">
				<path id="XMLID_195_" d="M188.2,23.7c-1.7-1-3.8-0.4-4.8,1.3l-4.7,8.1c-1,1.7-0.4,3.8,1.3,4.8c0.6,0.3,1.2,0.5,1.8,0.5
					c1.2,0,2.4-0.6,3-1.8l4.7-8.1C190.5,26.9,189.9,24.7,188.2,23.7z"/>
			</g>
		</g>
	</g>
</g>
</svg>
