<?xml version="1.0" encoding="utf-8"?>
<!-- Generator: Adobe Illustrator 19.0.0, SVG Export Plug-In . SVG Version: 6.00 Build 0)  -->
<svg version="1.1" id="Layer_1" xmlns="http://www.w3.org/2000/svg" xmlns:xlink="http://www.w3.org/1999/xlink" x="0px" y="0px"
	 viewBox="0 0 200 200" style="enable-background:new 0 0 200 200;" xml:space="preserve">
<g id="XMLID_99_">
	<g id="XMLID_101_">
		<path id="XMLID_102_" d="M163.8,186.2h-45c-2.1,0-3.8-1.7-3.8-3.8v-48.7H85v48.7c0,2.1-1.7,3.8-3.8,3.8h-45
			c-2.1,0-3.8-1.7-3.8-3.8v-75c0-2.1,1.7-3.8,3.8-3.8c2.1,0,3.8,1.7,3.8,3.8v71.3h37.5V130c0-2.1,1.7-3.8,3.8-3.8h37.5
			c2.1,0,3.8,1.7,3.8,3.8v48.7H160v-67.5c0-2.1,1.7-3.8,3.8-3.8c2.1,0,3.8,1.7,3.8,3.8v71.3C167.5,184.6,165.8,186.2,163.8,186.2z
			 M186.2,107.5c-1,0-1.9-0.4-2.7-1.1L100,22.8l-83.6,83.6c-1.5,1.5-3.8,1.5-5.3,0s-1.5-3.8,0-5.3l86.3-86.3c1.5-1.5,3.8-1.5,5.3,0
			l86.3,86.3c1.5,1.5,1.5,3.8,0,5.3C188.2,107.1,187.2,107.5,186.2,107.5z M156.2,55c-2.1,0-3.8-1.7-3.8-3.8V28.8H130
			c-2.1,0-3.8-1.7-3.8-3.8s1.7-3.8,3.8-3.8h26.3c2.1,0,3.8,1.7,3.8,3.8v26.2C160,53.3,158.3,55,156.2,55z"/>
	</g>
</g>
</svg>
