<?xml version="1.0" encoding="utf-8"?>
<!-- Generator: Adobe Illustrator 19.0.0, SVG Export Plug-In . SVG Version: 6.00 Build 0)  -->
<svg version="1.1" id="Layer_1" xmlns="http://www.w3.org/2000/svg" xmlns:xlink="http://www.w3.org/1999/xlink" x="0px" y="0px"
	 viewBox="0 0 200 200" style="enable-background:new 0 0 200 200;" xml:space="preserve">
<g id="XMLID_211_">
	<g id="XMLID_212_">
		<g id="XMLID_213_">
			<path id="XMLID_217_" d="M190,79.5c0-1.3-0.6-2.5-1.6-3.2c0,0-10-7.8-23-17.9V42.7c0-9-7.3-16.4-16.4-16.4h-23.8
				c-5.8-4.8-10.9-9-14.3-12c-3.2-2.9-7.1-4.4-11-4.4c-3.9,0-7.8,1.5-11,4.4c-3.4,3-8.4,7.2-14.3,12H50.9c-9,0-16.4,7.3-16.4,16.4
				v15.7c-13,10.2-23,17.9-23,17.9c-1,0.8-1.6,2-1.6,3.2h0v94.1c0,9,7.3,16.4,16.4,16.4h147.3c9,0,16.4-7.3,16.4-16.4L190,79.5
				L190,79.5z M165.5,68.8c5.7,4.5,10.6,8.3,13.8,10.8c-3.2,2.5-8.1,6.3-13.8,10.7V68.8z M94.4,20.5c3.5-3.1,7.6-3.1,11.1,0
				c1.8,1.6,4.2,3.6,6.8,5.8H87.6C90.3,24.1,92.6,22.2,94.4,20.5z M42.7,42.7c0-4.5,3.7-8.2,8.2-8.2h98.2c4.5,0,8.2,3.7,8.2,8.2v54
				c-18.3,14.4-41.3,32.7-51.7,41.9c-1,0.9-3,2.3-5.7,2.3c-1.9,0-3.8-0.8-5.6-2.3c-10.5-9.3-33.3-27.5-51.6-41.8L42.7,42.7z
				 M34.5,68.8v21.5C28.8,85.8,24,82,20.8,79.5C24,77.1,28.8,73.3,34.5,68.8z M181.8,173.6c0,4.5-3.7,8.2-8.2,8.2H26.4
				c-4.5,0-8.2-3.7-8.2-8.2V87.9c17.1,13.3,56.5,44.3,70.7,56.8c3.3,2.9,7.1,4.4,11,4.4c4,0,7.9-1.6,11.1-4.4
				c14.7-13,55-44.5,70.8-56.8V173.6z"/>
			<circle id="XMLID_216_" cx="87.7" cy="71.4" r="4.1"/>
			<circle id="XMLID_215_" cx="112.3" cy="71.4" r="4.1"/>
			<path id="XMLID_214_" d="M120,89.6c1-2,0.2-4.4-1.8-5.4c-2-1-4.4-0.2-5.5,1.7c-0.1,0.2-3.3,6-12.7,6c-9.3,0-12.6-5.6-12.7-6
				c-1-2-3.4-2.8-5.5-1.8c-2,1-2.8,3.5-1.8,5.5c0.2,0.4,5.4,10.4,20,10.4S119.8,90,120,89.6z"/>
		</g>
	</g>
</g>
</svg>
