<?xml version="1.0" encoding="utf-8"?>
<!-- Generator: Adobe Illustrator 19.0.0, SVG Export Plug-In . SVG Version: 6.00 Build 0)  -->
<svg version="1.1" id="Layer_1" xmlns="http://www.w3.org/2000/svg" xmlns:xlink="http://www.w3.org/1999/xlink" x="0px" y="0px"
	 viewBox="0 0 200 200" style="enable-background:new 0 0 200 200;" xml:space="preserve">
<style type="text/css">
	.st0{fill:#FFFFFF;}
	.st1{fill:#CCCCCC;}
</style>
<g id="XMLID_754_">
	<path id="XMLID_511_" class="st0" d="M60.6,122.3c1,11.5,2.3,22.9,3.3,34.4c0.6,7.3,1.1,14.7,1.2,22.1c0.2,10.7-8.1,17.5-18.7,15.8
		c-1.6-0.3-3.1-0.6-4.6-1.1c-6-2-9.5-6.3-9.9-12.6c-0.3-5.3-0.2-10.6,0.1-15.9c0.3-6.2,0.9-12.3,1.5-18.4c0.6-6.6,1.4-13.1,2.1-19.7
		c0.7-6.7,1.4-13.5,2.2-20.2c0.4-3.7,0.8-7.4,1.2-11.1c0.2-1.3,0-2.1-1.4-2.4c-0.9-0.2-1.7-0.7-2.6-1.1C25.2,88.5,20.7,80.9,19,70.9
		c-1.6-9.2-0.7-18.4-0.4-27.6c0.2-6.8,0.6-13.6,0.9-20.5c0.1-3.1,0.4-6.2,0.6-9.3c0.1-1.4,0.9-2.4,2.2-2.8c1.4-0.4,2.8-0.1,3.6,1.2
		c0.7,1.2,1.5,2.6,1.6,4c1.2,11.6,2.2,23.3,3.4,34.9c0.2,1.5,0.8,3.1,1.6,4.4c0.8,1.5,2.2,1.6,3.5,0.5c1.4-1.1,2.4-2.5,2.6-4.4
		c1.1-8.8,2.2-17.6,3.3-26.5c0.3-2.8,0.5-5.5,1-8.3c0.2-1.4,0.9-2.7,1.6-3.9c0.7-1.2,1.6-2.4,3.2-2.2c1.7,0.2,3.1,1.2,3.6,2.9
		c0.5,1.7,0.9,3.4,1.2,5.1c1.9,10.8,3.7,21.7,5.6,32.6c0.1,0.4,0.2,0.8,0.4,1.3c0.5,1.6,1.1,3,3.1,3.2c1.5,0.1,3.7-1.8,4.1-3.5
		c0.4-2.1,0.6-4.2,0.8-6.3c1-9.6,2-19.2,3.1-28.8c0.2-1.5,0.6-3,1.3-4.4c1-2.1,3-2.5,4.7-0.9c1.1,1.1,2.1,2.5,2.6,4
		c1.6,4.9,2,10,2,15c0,9.7,0,19.5-0.4,29.2c-0.3,6.6-1.5,13.1-4,19.3c-3.3,8.2-9.3,13.1-18.2,15c0.3,2.4,0.5,4.8,0.8,7.1
		c0.1,0.8,0.2,1.5,0.3,2.3c0.3,2.8,0.3,2.8-2.3,4c-2.8,1.4-5.6,2.7-8.7,4.2c2.4,1.2,10.3,3.4,12.4,4.4L60.6,122.3z"/>
	<path id="XMLID_1769_" class="st0" d="M149.3,65.9c0-5.4,0-10.7,0-16.1c0-3,0.2-2.4-2.5-2.6c-1.7-0.1-3.4-0.4-4.9-1.1
		c-3.1-1.4-4.4-4.6-3.7-8.3c0.5-3,3.4-5.4,6.8-5.8c0.5-0.1,1.1-0.1,1.6-0.1c2.7-0.1,2.6-0.1,2.7-2.9c0.1-3.7,0-7.5,0.7-11.1
		c1.5-7.1,8.5-12.7,15.8-12.7c2.5,0,5,0.2,7.4,0.9c3.4,1,4.9,3.7,4.6,7.5c-0.3,3.8-2.3,6-5.9,6.6c-5.1,0.9-5.6,1.5-5.6,6.7
		c0,1.2,0.1,2.4,0,3.6c-0.1,1.1,0.4,1.4,1.5,1.4c1.5,0,3,0,4.4,0.1c4.8,0.3,7.8,3.3,7.8,7.6c-0.1,4.3-3.4,7.6-8.1,7.7
		c-1.3,0-2.5,0.1-3.8,0c-1.4-0.1-1.8,0.4-1.8,1.8c0.1,6.5,0,13,0,19.5c0,5,0.1,10-0.1,14.9c-0.2,6.7-7.3,10.5-12.8,7
		c-2.8-1.7-3.9-4.4-4.1-7.6c0-0.2,0-0.4,0-0.7C149.3,76.8,149.3,71.3,149.3,65.9L149.3,65.9z"/>
	<path id="XMLID_1768_" class="st0" d="M103.4,46.9c-1.7-0.2-3.3-0.3-4.8-0.7c-3.9-0.8-6-3.7-5.8-7.7c0.2-3.7,2.7-6.4,6.4-6.9
		c1.3-0.2,2.6-0.3,4.1-0.5c0-0.6,0.1-1.2,0.1-1.8c0.1-3.5,0-7.1,0.3-10.6c0.3-4.7,3.7-7.8,8.2-7.9c4.4-0.1,7.7,2.7,8.4,7.3
		c0.3,2.3,0.2,4.6,0.3,6.9c0,2,0,4,0,6.3c1.5,0,2.8-0.1,4.2,0c1.4,0.1,2.9,0.1,4.2,0.5c3.8,1.1,5.6,4.1,5.2,8.2
		c-0.4,3.5-3.2,6.3-6.9,6.5c-2.2,0.2-4.3,0-6.6,0c0,1,0,1.7,0,2.3c0,10.7,0,21.4,0,32.1c0,1.4-0.1,2.7-0.4,4.1
		c-1,4.5-4.3,6.7-9.1,6.4c-3.7-0.2-6.9-3.4-7.4-7.4c-0.2-1.3-0.3-2.6-0.3-3.9c0-10.4,0-20.9,0-31.3
		C103.4,48.3,103.4,47.7,103.4,46.9z"/>
	<path id="XMLID_930_" class="st1" d="M47.3,111.8l11.3,5.1c0,0,106.7,1.1,124.8-5.6c0,0-1.2-8.6-126.8-4.9L47.3,111.8z"/>
	<path id="XMLID_937_" class="st1" d="M36.9,115.3c0,0-20.2-1.8-20.2-4.1s21.1-4.1,21.1-4.1L36.9,115.3z"/>
</g>
</svg>
