<?xml version="1.0" encoding="utf-8"?>
<!-- Generator: Adobe Illustrator 19.0.0, SVG Export Plug-In . SVG Version: 6.00 Build 0)  -->
<svg version="1.1" id="Layer_1" xmlns="http://www.w3.org/2000/svg" xmlns:xlink="http://www.w3.org/1999/xlink" x="0px" y="0px"
	 viewBox="0 0 200 200" style="enable-background:new 0 0 200 200;" xml:space="preserve">
<g id="XMLID_108_">
	<g id="XMLID_109_">
		<g id="XMLID_110_">
			<path id="XMLID_132_" d="M175,40h-73.3l-9.4-27.5C91.8,11,90.4,10,88.8,10H25c-8.3,0-15,6.7-15,15v120c0,8.3,6.7,15,15,15h72.4
				l10.3,27.6c0.5,1.5,1.9,2.4,3.5,2.4H175c8.3,0,15-6.7,15-15V55C190,46.7,183.3,40,175,40z M25,152.5c-4.1,0-7.5-3.4-7.5-7.5V25
				c0-4.1,3.4-7.5,7.5-7.5h61.1l46.2,135L25,152.5L25,152.5z M105.4,160h23.8l-16.7,19.1L105.4,160z M182.5,175
				c0,4.1-3.4,7.5-7.5,7.5h-55.5l20.8-23.8l-0.1,0c0.1-0.1,0.2-0.1,0.3-0.2c0.7-1,0.9-2.2,0.5-3.4l-0.9-2.5h23.6
				c2.1,0,3.8-1.7,3.8-3.8c0-2.1-1.7-3.7-3.8-3.7h-26.1l-5.1-15h31.3c2.1,0,3.8-1.7,3.8-3.8s-1.7-3.8-3.8-3.8h-33.8l-5.1-15h39
				c2.1,0,3.8-1.7,3.8-3.8c0-2.1-1.7-3.8-3.8-3.8h-41.5l-5.1-15h46.7c2.1,0,3.8-1.7,3.8-3.8c0-2.1-1.7-3.8-3.8-3.8h-49.2l-10.3-30
				H175c4.1,0,7.5,3.4,7.5,7.5L182.5,175L182.5,175z"/>
			<path id="XMLID_113_" d="M36.3,77.5h52.5c2.1,0,3.8-1.7,3.8-3.8c0-2.1-1.7-3.8-3.8-3.8h-0.4c-1.5-10.2-8.9-18.5-18.6-21.3
				c0.1-0.4,0.2-0.7,0.2-1.2c0-4.1-3.4-7.5-7.5-7.5c-4.1,0-7.5,3.4-7.5,7.5c0,0.4,0.2,0.8,0.2,1.2C45.5,51.5,38.1,59.8,36.6,70h-0.4
				c-2.1,0-3.8,1.7-3.8,3.8C32.5,75.8,34.2,77.5,36.3,77.5z M62.5,55c9.1,0,16.6,6.5,18.4,15H44.1C45.9,61.5,53.4,55,62.5,55z"/>
			<path id="XMLID_112_" d="M88.8,100H36.3c-2.1,0-3.8,1.7-3.8,3.8c0,2.1,1.7,3.8,3.8,3.8h52.5c2.1,0,3.8-1.7,3.8-3.8
				C92.5,101.7,90.8,100,88.8,100z"/>
			<path id="XMLID_111_" d="M88.8,122.5H36.3c-2.1,0-3.8,1.7-3.8,3.8c0,2.1,1.7,3.8,3.8,3.8h52.5c2.1,0,3.8-1.7,3.8-3.8
				C92.5,124.2,90.8,122.5,88.8,122.5z"/>
		</g>
	</g>
</g>
</svg>
